<svg width="19" height="20" viewBox="0 0 19 20" fill="none" xmlns="http://www.w3.org/2000/svg">
<path d="M17.5996 8.22244H1.59961M13.1552 1.11133V4.66688M6.04405 1.11133V4.66688M5.86628 18.8891H13.3329C14.8264 18.8891 15.5732 18.8891 16.1436 18.5985C16.6453 18.3428 17.0533 17.9348 17.309 17.4331C17.5996 16.8626 17.5996 16.1159 17.5996 14.6224V7.15577C17.5996 5.6623 17.5996 4.91556 17.309 4.34513C17.0533 3.84337 16.6453 3.43542 16.1436 3.17976C15.5732 2.88911 14.8264 2.88911 13.3329 2.88911H5.86628C4.3728 2.88911 3.62607 2.88911 3.05563 3.17976C2.55387 3.43542 2.14592 3.84337 1.89026 4.34513C1.59961 4.91556 1.59961 5.6623 1.59961 7.15577V14.6224C1.59961 16.1159 1.59961 16.8626 1.89026 17.4331C2.14592 17.9348 2.55387 18.3428 3.05563 18.5985C3.62607 18.8891 4.3728 18.8891 5.86628 18.8891Z" stroke="white" stroke-width="1.77778" stroke-linecap="round" stroke-linejoin="round"/>
</svg>
