<svg width="89" height="16" viewBox="0 0 89 16" fill="none" xmlns="http://www.w3.org/2000/svg">
<path d="M14.517 6.40909H10.5114C10.483 6.07765 10.4072 5.77699 10.2841 5.5071C10.1657 5.23722 10 5.00521 9.78693 4.81108C9.5786 4.61222 9.32528 4.4607 9.02699 4.35653C8.72869 4.24763 8.39015 4.19318 8.01136 4.19318C7.34848 4.19318 6.78741 4.35417 6.32812 4.67614C5.87358 4.99811 5.52794 5.45975 5.29119 6.06108C5.05919 6.66241 4.94318 7.38447 4.94318 8.22727C4.94318 9.11742 5.06155 9.86316 5.2983 10.4645C5.53977 11.0611 5.88778 11.5109 6.34233 11.8139C6.79688 12.1122 7.34375 12.2614 7.98295 12.2614C8.34754 12.2614 8.67424 12.2164 8.96307 12.1264C9.25189 12.0317 9.50284 11.8968 9.71591 11.7216C9.92898 11.5464 10.1018 11.3357 10.2344 11.0895C10.3717 10.8385 10.464 10.5568 10.5114 10.2443L14.517 10.2727C14.4697 10.8883 14.2969 11.5156 13.9986 12.1548C13.7003 12.7893 13.2765 13.3764 12.7273 13.9162C12.1828 14.4512 11.508 14.8821 10.7031 15.2088C9.8982 15.5355 8.96307 15.6989 7.89773 15.6989C6.5625 15.6989 5.36458 15.4124 4.30398 14.8395C3.24811 14.2666 2.41241 13.4238 1.79688 12.3111C1.18608 11.1984 0.880682 9.83712 0.880682 8.22727C0.880682 6.60795 1.19318 5.24432 1.81818 4.13636C2.44318 3.02367 3.28598 2.18324 4.34659 1.61506C5.4072 1.04214 6.59091 0.755681 7.89773 0.755681C8.81629 0.755681 9.66146 0.881155 10.4332 1.1321C11.205 1.38305 11.8821 1.75 12.4645 2.23295C13.0469 2.71117 13.5156 3.30066 13.8707 4.00142C14.2259 4.70218 14.4413 5.50473 14.517 6.40909ZM30.3995 8.22727C30.3995 9.84659 30.0846 11.2126 29.4549 12.3253C28.8252 13.4332 27.9753 14.2737 26.9052 14.8466C25.8351 15.4148 24.6419 15.6989 23.3256 15.6989C21.9999 15.6989 20.802 15.4124 19.7319 14.8395C18.6665 14.2618 17.819 13.419 17.1893 12.3111C16.5643 11.1984 16.2518 9.83712 16.2518 8.22727C16.2518 6.60795 16.5643 5.24432 17.1893 4.13636C17.819 3.02367 18.6665 2.18324 19.7319 1.61506C20.802 1.04214 21.9999 0.755681 23.3256 0.755681C24.6419 0.755681 25.8351 1.04214 26.9052 1.61506C27.9753 2.18324 28.8252 3.02367 29.4549 4.13636C30.0846 5.24432 30.3995 6.60795 30.3995 8.22727ZM26.337 8.22727C26.337 7.35606 26.221 6.62216 25.989 6.02557C25.7617 5.42424 25.4232 4.9697 24.9734 4.66193C24.5283 4.34943 23.979 4.19318 23.3256 4.19318C22.6722 4.19318 22.1206 4.34943 21.6708 4.66193C21.2257 4.9697 20.8872 5.42424 20.6552 6.02557C20.4279 6.62216 20.3143 7.35606 20.3143 8.22727C20.3143 9.09848 20.4279 9.83475 20.6552 10.4361C20.8872 11.0327 21.2257 11.4872 21.6708 11.7997C22.1206 12.1075 22.6722 12.2614 23.3256 12.2614C23.979 12.2614 24.5283 12.1075 24.9734 11.7997C25.4232 11.4872 25.7617 11.0327 25.989 10.4361C26.221 9.83475 26.337 9.09848 26.337 8.22727ZM44.8118 0.954545V15.5H41.5163L36.2607 7.85795H36.1754V15.5H32.2266V0.954545H35.5788L40.7493 8.56818H40.8629V0.954545H44.8118Z" fill="white"/>
<path d="M46.282 4.13636V0.954545H58.924V4.13636H54.549V15.5H50.657V4.13636H46.282ZM60.4102 15.5V0.954545H66.6886C67.7681 0.954545 68.7127 1.15104 69.5224 1.54403C70.332 1.93703 70.9618 2.50284 71.4116 3.24148C71.8614 3.98011 72.0863 4.86553 72.0863 5.89773C72.0863 6.93939 71.8543 7.81771 71.3903 8.53267C70.931 9.24763 70.2847 9.78741 69.4513 10.152C68.6228 10.5166 67.6545 10.6989 66.5465 10.6989H62.7965V7.63068H65.7511C66.2151 7.63068 66.6104 7.57386 66.9371 7.46023C67.2686 7.34186 67.5219 7.15483 67.6971 6.89915C67.877 6.64347 67.967 6.30966 67.967 5.89773C67.967 5.48106 67.877 5.14252 67.6971 4.8821C67.5219 4.61695 67.2686 4.42282 66.9371 4.29972C66.6104 4.17187 66.2151 4.10795 65.7511 4.10795H64.359V15.5H60.4102ZM68.9329 8.82386L72.5692 15.5H68.2795L64.7283 8.82386H68.9329ZM77.5479 15.5H73.2866L78.0877 0.954545H83.4854L88.2866 15.5H84.0252L80.8434 4.96023H80.7298L77.5479 15.5ZM76.7525 9.76136H84.7638V12.7159H76.7525V9.76136Z" fill="#FC4D35"/>
</svg>
